<svg id="Calque_2" data-name="Calque 2" xmlns="http://www.w3.org/2000/svg" viewBox="0 0 311.94 75.98">
  <defs>
    <style>
      .cls-1 {
        fill: #1d1d1b;
      }

      .cls-2 {
        fill: none;
        stroke: #1d1d1b;
        stroke-miterlimit: 10;
        stroke-width: 4px;
      }
    </style>
  </defs>
  <title>genre</title>
  <polygon class="cls-1" points="50.74 75.98 6.81 75.98 6.81 71.98 46.74 71.98 46.74 0 50.74 0 50.74 75.98"/>
  <path class="cls-1" d="M79.69,106c-15.43,0-28-13-28-29s12.55-29,28-29a27.49,27.49,0,0,1,22,11.12l-3.19,2.41A23.51,23.51,0,0,0,79.69,52c-13.22,0-24,11.22-24,25s10.76,25,24,25a23.51,23.51,0,0,0,18.84-9.53l3.19,2.41A27.49,27.49,0,0,1,79.69,106Z" transform="translate(-51.71 -47.86)"/>
  <path class="cls-1" d="M143.23,106.38c-15.55,0-28.21-13.12-28.21-29.25s12.66-29.25,28.21-29.25a27.44,27.44,0,0,1,15.46,4.77l.87.6-.07,25.88H119.1c1,13,11.43,23.25,24.13,23.25a23.35,23.35,0,0,0,13.46-4.26l2.3,3.27A27.3,27.3,0,0,1,143.23,106.38ZM119.1,75.13h36.4l.06-19.74a23.42,23.42,0,0,0-12.33-3.51C130.53,51.88,120.08,62.14,119.1,75.13Z" transform="translate(-51.71 -47.86)"/>
  <path class="cls-1" d="M296.41,106.37c-15.55,0-28.2-13.13-28.2-29.26s12.65-29.25,28.2-29.25a27.37,27.37,0,0,1,15.46,4.78l.88.6-.08,25.87H272.28c1,13,11.43,23.26,24.13,23.26a23.41,23.41,0,0,0,13.47-4.27l2.29,3.28A27.38,27.38,0,0,1,296.41,106.37ZM272.28,75.11h36.41l.05-19.73a23.29,23.29,0,0,0-12.33-3.52C283.71,51.86,273.26,62.12,272.28,75.11Z" transform="translate(-51.71 -47.86)"/>
  <polygon class="cls-1" points="163.94 58.44 159.94 58.44 159.98 4.07 126.1 4.07 126.06 58.44 122.06 58.44 122.1 0.07 163.98 0.07 163.94 58.44"/>
  <path class="cls-2" d="M260.71,105" transform="translate(-51.71 -47.86)"/>
  <polygon class="cls-1" points="180.68 58.38 176.68 58.38 176.69 0.13 209.8 0.13 209.8 4.13 180.69 4.13 180.68 58.38"/>
  <rect class="cls-1" x="273.66" y="46.33" width="4" height="11.96"/>
  <polygon class="cls-1" points="277.74 38.41 273.74 38.41 273.74 27.67 307.94 27.67 307.94 4.19 274.03 4.19 274.03 0.19 311.94 0.19 311.94 31.67 277.74 31.67 277.74 38.41"/>
</svg>
